<svg xmlns="http://www.w3.org/2000/svg" width="613" height="163" viewBox="0 0 669 178" version="1.1">
  <g stroke="none" stroke-width="1" fill="none" fill-rule="evenodd">
    <path d="M61.5 4.33C70.16 1.52 79.4 0 89 0 138.15 0 178 39.85 178 89 178 138.15 138.15 178 89 178 39.85 178 0 138.15 0 89 0 61.77 12.23 37.39 31.5 21.07L31.5 89C31.5 121.17 57.58 147.25 89.75 147.25 121.92 147.25 148 121.17 148 89 148 56.83 121.92 30.75 89.75 30.75 79.5 30.75 69.87 33.4 61.5 38.05L61.5 4.33Z" fill="#0094A9"/>
    <path d="M318.24 57.25L329.28 57.25 329.28 79.09C333.68 76.16 338.68 73.17 345.12 73.81 351.86 74.48 357.55 79.76 358.32 87.25 359.3 96.79 357.58 109.74 358.32 120.37L347.04 120.37C345.71 108.49 352.24 79.57 336.48 84.61 326.04 87.95 330.14 107.31 329.28 120.37L318 120.37C318.16 99.41 317.68 77.81 318.24 57.25L318.24 57.25Z" fill="#004777"/>
    <path d="M432 77.41C427.07 72.92 420.81 67.8 410.4 68.77 399.08 69.83 391.38 79.73 392.16 91.33 392.92 102.67 401.33 111.75 414.96 110.77 420.8 110.35 425.19 107.89 428.64 105.01 429.22 104.53 431.37 101.91 431.76 101.89 432.95 101.84 436.75 107.12 437.76 108.13 437.96 108.33 439.89 109.27 439.92 110.05 439.95 110.86 435.67 113.93 435.12 114.37 429.99 118.48 423.62 121.59 415.44 122.05 402.3 122.8 392.76 117.25 387.36 110.77 380.24 102.23 378.32 85.91 383.52 75.25 388.05 65.96 397.94 58.51 411.12 57.49 419.75 56.83 428.93 60.17 434.88 64.69 435.8 65.39 440.13 68.85 440.16 69.49 440.2 70.34 436.89 72.82 436.08 73.57 434.33 75.19 433.66 75.95 432 77.41L432 77.41Z" fill="#004777"/>
    <path d="M490.32 57.25L501.36 57.25C501.92 77.81 501.44 99.41 501.6 120.37L490.08 120.37 490.08 57.97C490.06 57.63 490.04 57.29 490.32 57.25L490.32 57.25Z" fill="#004777"/>
    <path d="M506.16 57.25L517.2 57.25C517.76 77.81 517.28 99.41 517.44 120.37L505.92 120.37 505.92 57.97C505.9 57.63 505.88 57.29 506.16 57.25L506.16 57.25Z" fill="#004777"/>
    <path d="M309.12 58.21L309.12 75.01 315.84 75.01 315.84 84.85 309.36 84.85C308.8 96.21 309.28 108.61 309.12 120.37L297.6 120.37 297.6 84.85 291.84 84.85 291.84 75.01 297.36 75.01C298.08 69.97 297.12 63.25 297.84 58.21L309.12 58.21 309.12 58.21Z" fill="#004777"/>
    <path d="M198.96 58.93C216.6 57.76 235.44 59.45 235.44 74.77 235.44 80.46 232.35 83.79 228.72 86.53 236.37 89.38 243.42 98.39 239.04 109.09 233.77 121.97 217.92 120.79 198.72 120.37L198.72 59.65C198.7 59.31 198.68 58.97 198.96 58.93L198.96 58.93ZM220.8 71.41C218.87 70.08 214.95 69.97 211.44 69.97L211.44 82.93C221.53 85.59 226.79 75.55 220.8 71.41L220.8 71.41ZM226.8 105.97C228.51 103.45 228.05 99.73 226.56 97.57 224.06 93.93 217.59 93.38 211.68 93.49 211.12 98.29 211.6 104.13 211.44 109.33 217.82 109.12 224.31 109.64 226.8 105.97L226.8 105.97Z" fill="#004777"/>
    <path d="M277.44 79.81L277.44 75.01 288.96 75.01 288.96 120.37 277.44 120.37 277.44 116.05C273.91 118.41 271.19 121.05 266.16 121.57 252.23 123.01 241.74 112.19 241.68 98.05 241.63 86.35 248.29 75.06 260.4 73.81 268.67 72.96 273.28 76.07 277.44 79.81L277.44 79.81ZM261.12 110.53C280.85 117.62 284.75 81.36 263.28 84.61 250.36 86.56 250.36 106.66 261.12 110.53L261.12 110.53Z" fill="#004777"/>
    <path d="M459.36 74.05C474.7 72.28 486.68 83.04 486.72 97.57 486.76 115.11 467.13 128.6 450.24 118.45 443.35 114.31 438.02 105.52 438.96 94.69 439.75 85.64 445.66 79.28 452.4 75.97 454.16 75.1 456.84 74.34 459.36 74.05L459.36 74.05ZM451.68 91.09C451.34 91.77 450.43 93.53 450.24 96.61 449.07 115.32 475.34 115.35 475.2 97.57 475.14 89.89 469.77 83.37 460.32 84.85 455.91 85.54 452.64 89.18 451.68 91.09L451.68 91.09Z" fill="#004777"/>
    <path d="M568.56 100.93L532.08 100.93C532.48 104.93 534.65 108.48 538.32 110.29 544.39 113.29 552.37 110.74 556.32 107.17 559.27 108.7 562.34 110.11 565.44 111.49 559.7 124.04 536.86 124.08 527.76 115.33 519.05 106.96 518.89 90.76 526.08 81.97 530.64 76.39 537.43 73.11 547.2 73.81 561.03 74.8 569.05 85.26 568.56 100.93L568.56 100.93ZM532.56 92.05L557.04 92.05C555.39 80.75 534.28 80.97 532.56 92.05L532.56 92.05Z" fill="#004777"/>
    <path d="M606.72 79.81L606.72 75.01 618 75.01C617.46 88.27 618.72 104.52 618 117.49 617.76 121.9 616.76 126.17 614.88 129.25 608.89 139.09 587.83 141.85 577.44 133.57 574.45 131.19 572.66 128.06 570.96 123.97 574.06 124.21 579.19 122.85 582.96 123.73 584.42 124.07 585.59 125.89 587.28 126.61 595.72 130.19 608.52 126.72 606.72 115.33 602.58 118.42 597.97 121.15 589.92 120.37 578.76 119.29 570.96 108.95 570.96 97.09 570.96 85.92 577.53 75.04 589.44 73.81 597.82 72.94 602.37 76.16 606.72 79.81L606.72 79.81ZM588.72 85.81C578.18 91.49 582.02 108.5 592.56 110.05 603.27 111.62 611.09 101.16 606 90.85 604.35 87.51 599.65 83.97 593.52 84.61 591.5 84.82 590.01 85.12 588.72 85.81L588.72 85.81Z" fill="#004777"/>
    <path d="M668.88 96.13L668.88 100.93 632.16 100.93C633 108.44 640.01 112.85 648.48 111.25 651.88 110.61 654.02 108.65 656.64 107.17 659.48 108.81 662.65 110.12 665.76 111.49 661.18 120.68 645.92 124.34 634.8 119.65 625.48 115.71 618.23 104.86 621.84 90.85 624.65 79.94 634.35 72.47 648 73.81 660.33 75.02 667.1 83.47 668.88 96.13L668.88 96.13ZM632.64 92.05L657.36 92.05C654.98 80.64 635.18 80.96 632.64 92.05L632.64 92.05Z" fill="#004777"/>
    <path d="M85.44 59.41C100.43 57.81 110.99 65.94 115.92 75.49 126.3 95.61 111.32 117.85 92.16 119.41 79.06 120.48 69.24 114.29 63.84 106.21 61.28 102.38 59.24 97.7 58.8 92.05 58.2 84.26 61.41 76.01 63.84 72.37 68.27 65.74 75.22 60.5 85.44 59.41L85.44 59.41Z" fill="#004777"/>
  </g>
</svg>