<?xml version="1.0" encoding="utf-8"?>
<svg version="1.1" id="Layer_1" xmlns="http://www.w3.org/2000/svg" x="0px" y="0px"
     viewBox="0 0 114.1 33" style="enable-background:new 0 0 114.1 33;" xml:space="preserve">
<style type="text/css">
	.st0{enable-background:new    ;}
	.st1{fill:#F07F13;}
</style>
    <g>
	<g class="st0">
		<path class="st1" d="M53.3,0H40.2c-0.8,0-1.3,0.8-1.4,1.2L36.7,6c0,0-0.1,0.4-0.1,0.6C36.6,7.4,37.3,8,37.9,8l12.2,0
			c4.6,0,6.9,0.6,6.9,4.7V13H46.6c-9,0-13.5,3.3-13.5,10.5c0,5.7,4.3,9.5,10.7,9.5l22,0c0.9,0,1.3-0.4,1.3-1.1v-19
			C67,4.2,62.1,0,53.3,0z M57,25h-8c-2.5,0-4.9,0.1-4.9-2.4c0-2.7,2-2.6,5.2-2.6H57V25z M33.8,0l-8.1,0c-0.5,0-1,0.8-1,1.4
			c-0.2,6.3-3.2,21.2-7.3,23.1c-4.1-1.9-7.1-16.8-7.3-23.1c0-0.5-0.4-1.4-1-1.4H1.2C0.7,0,0.1,0.8,0,1.4c0.4,6.4,4.1,22.3,10.5,30.4
			c0.6,0.8,1.7,1.3,2.7,1.3h8.5c1,0,2.1-0.5,2.7-1.3c6.4-8.1,10.2-23.9,10.5-30.3C34.9,0.9,34.3,0,33.8,0z M95.6,16.3
			c4.6-3.5,7.6-9.4,8-14.9c0-0.5-0.4-1.4-1-1.4H95c-0.5,0-0.9,0.8-1,1.3c-0.4,4.4-2.9,8.5-7.1,10.3c-4.3-1.8-6.8-5.9-7.1-10.3
			c-0.1-0.5-0.5-1.3-1-1.3h-7.6c-0.5,0-1,0.9-1,1.4c0.4,5.5,3.3,11.4,7.9,14.9c-4.7,3.4-7.6,9.8-8,15.4c0,0.5,0.5,1.3,1,1.3l7.5,0
			c0.5,0,1-0.8,1-1.4c0.4-4.5,2.9-8.9,7.1-10.7c4.3,1.8,6.7,6.3,7.1,10.8c0,0.5,0.4,1.3,1,1.3c0,0,0.6,0,0.7,0l6.9,0
			c0.5,0,1-0.8,1-1.3C103.3,26.1,100.3,19.8,95.6,16.3z"/>
	</g>
        <g>
		<path class="st1" d="M108,1h-1v3h-1V1h-1V0h3V1z"/>
            <path class="st1" d="M110.6,4c-0.2-0.5-0.5-1.3-0.6-2v2h-1V0h0.8c0.5,0.9,0.9,1.9,1.2,2.8c0.4-0.9,0.8-1.9,1.2-2.8h0.8v4h-1V2
			c-0.3,0.7-0.6,1.5-0.9,2H110.6z"/>
	</g>
</g>
</svg>